<svg xmlns="http://www.w3.org/2000/svg" xmlns:xlink="http://www.w3.org/1999/xlink" xml:space="preserve" version="1.1" style="shape-rendering:geometricPrecision;text-rendering:geometricPrecision;image-rendering:optimizeQuality;" viewBox="0 0 7111 8888.75" x="0px" y="0px" fill-rule="evenodd" clip-rule="evenodd"><defs><style type="text/css">
   
    .fil0 {fill:black}
   
  </style></defs><g><g><g><g><path class="fil0" d="M5545 4397l-3979 0c-737,0 -1337,-599 -1337,-1338 0,-380 162,-744 447,-996 271,-242 629,-363 990,-336 266,-329 676,-512 1096,-496 56,-685 633,-1228 1333,-1228 737,0 1337,599 1337,1336 0,135 -20,267 -59,393 349,-45 700,48 984,265 334,256 525,642 525,1061 1,738 -600,1339 -1337,1339zm-3979 -2480c-279,0 -551,103 -762,290 -243,217 -382,528 -382,852 0,631 512,1144 1142,1144l3980 0c630,0 1142,-513 1142,-1144 0,-358 -163,-688 -448,-906 -286,-219 -648,-290 -995,-196 -36,10 -75,-3 -100,-30 -25,-30 -29,-70 -14,-104 71,-152 105,-313 105,-482 0,-630 -512,-1143 -1142,-1143 -629,0 -1141,511 -1142,1140 0,28 -13,54 -34,72 -20,18 -48,27 -76,24 -407,-50 -812,123 -1056,452 -21,28 -54,43 -89,39 -42,-5 -85,-8 -129,-8z"/></g><g><path class="fil0" d="M1428 5988c-54,0 -97,-43 -97,-97l0 -855c0,-54 43,-97 97,-97l2030 0 0 -639c0,-54 43,-97 97,-97 54,0 97,43 97,97l0 736c0,54 -43,97 -97,97l-2030 0 0 758c0,53 -43,97 -97,97z"/></g><g><path class="fil0" d="M5683 5988c-54,0 -97,-43 -97,-97l0 -758 -2031 0c-54,0 -97,-43 -97,-97l0 -736c0,-54 43,-97 97,-97 54,0 97,43 97,97l0 639 2031 0c54,0 97,43 97,97l0 855c0,53 -43,97 -97,97z"/></g><g><path class="fil0" d="M3555 5988c-54,0 -97,-43 -97,-97l0 -855c0,-54 43,-97 97,-97 54,0 97,43 97,97l0 855c0,53 -43,97 -97,97z"/></g><g><path class="fil0" d="M1428 7108c-362,0 -658,-295 -658,-658 0,-362 296,-658 658,-658 363,0 657,296 657,658 0,363 -294,658 -657,658zm0 -1120c-255,0 -463,208 -463,464 0,255 208,463 463,463 256,0 463,-208 463,-463 0,-256 -207,-464 -463,-464z"/></g><g><path class="fil0" d="M3555 7108c-362,0 -657,-295 -657,-658 0,-362 295,-658 657,-658 362,0 658,296 658,658 0,363 -294,658 -658,658zm0 -1120c-256,0 -462,208 -462,464 0,255 206,463 462,463 255,0 463,-208 463,-463 0,-256 -208,-464 -463,-464z"/></g><g><path class="fil0" d="M5683 7108c-363,0 -658,-295 -658,-658 0,-362 295,-658 658,-658 362,0 658,296 658,658 0,363 -296,658 -658,658zm0 -1120c-256,0 -464,208 -464,464 0,255 208,463 464,463 255,0 463,-208 463,-463 0,-256 -208,-464 -463,-464z"/></g></g></g></g><text x="0" y="7126" fill="#000000" font-size="5px" font-weight="bold" font-family="'Helvetica Neue', Helvetica, Arial-Unicode, Arial, Sans-serif">Created by Muhammad Shabraiz</text><text x="0" y="7131" fill="#000000" font-size="5px" font-weight="bold" font-family="'Helvetica Neue', Helvetica, Arial-Unicode, Arial, Sans-serif">from the Noun Project</text></svg>