<svg xmlns="http://www.w3.org/2000/svg" xmlns:xlink="http://www.w3.org/1999/xlink" version="1.1" x="0px" y="0px" viewBox="0 0 100 125" style="enable-background:new 0 0 100 100;" xml:space="preserve"><g><path d="M66.29,55.13c0.04-0.14,0.15-0.21,0.29-0.21h3.56c1.45,0,2.62-1.18,2.62-2.62v-4.93c0-1.45-1.18-2.62-2.62-2.62h-3.56   c-0.14,0-0.25-0.08-0.29-0.21c-0.26-0.81-0.59-1.6-0.98-2.36c-0.07-0.13-0.04-0.26,0.06-0.36l2.52-2.52   c0.49-0.49,0.77-1.15,0.77-1.85s-0.27-1.36-0.77-1.85l-3.49-3.49c-0.49-0.49-1.15-0.77-1.85-0.77s-1.36,0.27-1.85,0.77l-2.52,2.52   c-0.1,0.1-0.23,0.12-0.36,0.06c-0.76-0.38-1.55-0.71-2.36-0.98c-0.14-0.04-0.21-0.15-0.21-0.29v-3.56c0-1.45-1.18-2.62-2.62-2.62   h-4.93c-1.45,0-2.62,1.18-2.62,2.62v3.56c0,0.14-0.08,0.25-0.21,0.29c-0.81,0.26-1.6,0.59-2.36,0.98   c-0.13,0.07-0.26,0.04-0.36-0.06l-2.52-2.52c-1.02-1.02-2.69-1.02-3.71,0l-3.49,3.49c-1.02,1.02-1.02,2.69,0,3.71l2.52,2.52   c0.1,0.1,0.12,0.23,0.06,0.36c-0.38,0.76-0.71,1.55-0.98,2.36c-0.04,0.14-0.15,0.21-0.29,0.21h-3.56c-1.45,0-2.62,1.18-2.62,2.62   v4.93c0,1.45,1.18,2.62,2.62,2.62h3.56c0.14,0,0.25,0.08,0.29,0.21c0.26,0.81,0.59,1.6,0.98,2.36c0.07,0.13,0.04,0.26-0.06,0.36   l-2.52,2.52c-0.49,0.49-0.77,1.15-0.77,1.85c0,0.7,0.27,1.36,0.77,1.85l3.49,3.49c1.02,1.02,2.69,1.02,3.71,0l2.52-2.52   c0.1-0.1,0.23-0.12,0.36-0.06c0.76,0.38,1.55,0.71,2.36,0.98c0.14,0.04,0.21,0.15,0.21,0.29v3.56c0,1.45,1.18,2.62,2.62,2.62h4.93   c1.45,0,2.62-1.18,2.62-2.62v-3.56c0-0.14,0.08-0.25,0.21-0.29c0.81-0.27,1.6-0.59,2.36-0.98c0.13-0.06,0.26-0.05,0.36,0.06   l2.52,2.52c0.49,0.49,1.15,0.77,1.85,0.77s1.36-0.27,1.85-0.77l3.49-3.49c0.49-0.49,0.77-1.15,0.77-1.85c0-0.7-0.27-1.36-0.77-1.85   l-2.52-2.52c-0.1-0.1-0.12-0.23-0.06-0.36C65.69,56.73,66.02,55.93,66.29,55.13z M63.73,59.48L66.25,62   c0.08,0.08,0.09,0.17,0.09,0.22c0,0.05-0.01,0.14-0.09,0.22l-3.49,3.49c-0.08,0.08-0.17,0.09-0.22,0.09S62.4,66,62.32,65.92   l-2.52-2.52c-0.8-0.8-2.03-1-3.04-0.48c-0.65,0.33-1.34,0.62-2.04,0.84c-1.08,0.35-1.8,1.36-1.8,2.49v3.56   c0,0.17-0.14,0.31-0.31,0.31h-4.93c-0.17,0-0.31-0.14-0.31-0.31v-3.56c0-1.14-0.72-2.14-1.8-2.49c-0.7-0.23-1.38-0.51-2.04-0.84   c-0.38-0.19-0.78-0.28-1.19-0.28c-0.68,0-1.35,0.26-1.85,0.77l-2.52,2.52c-0.12,0.12-0.32,0.12-0.44,0l-3.49-3.49   c-0.08-0.08-0.09-0.17-0.09-0.22c0-0.05,0.01-0.14,0.09-0.22l2.52-2.52c0.8-0.8,1-2.03,0.49-3.04c-0.33-0.66-0.62-1.34-0.84-2.04   c-0.35-1.08-1.36-1.8-2.49-1.8h-3.56c-0.17,0-0.31-0.14-0.31-0.31v-4.93c0-0.17,0.14-0.31,0.31-0.31h3.56   c1.14,0,2.14-0.72,2.49-1.8c0.23-0.7,0.51-1.38,0.84-2.04c0.51-1.01,0.32-2.24-0.49-3.04l-2.52-2.52c-0.12-0.12-0.12-0.32,0-0.44   l3.49-3.49c0.12-0.12,0.32-0.12,0.44,0l2.52,2.52c0.8,0.8,2.03,1,3.04,0.49c0.66-0.33,1.34-0.62,2.04-0.84   c1.08-0.35,1.8-1.36,1.8-2.49v-3.56c0-0.17,0.14-0.31,0.31-0.31h4.93c0.17,0,0.31,0.14,0.31,0.31v3.56c0,1.14,0.72,2.14,1.8,2.49   c0.7,0.23,1.38,0.51,2.04,0.84c1.01,0.51,2.24,0.32,3.04-0.49l2.52-2.52c0.08-0.08,0.17-0.09,0.22-0.09s0.14,0.01,0.22,0.09   l3.49,3.49c0.08,0.08,0.09,0.17,0.09,0.22s-0.01,0.14-0.09,0.22l-2.52,2.52c-0.8,0.8-1,2.03-0.48,3.04   c0.33,0.66,0.62,1.34,0.84,2.04c0.35,1.08,1.36,1.8,2.49,1.8h3.56c0.17,0,0.31,0.14,0.31,0.31v4.93c0,0.17-0.14,0.31-0.31,0.31   h-3.56c-1.14,0-2.14,0.72-2.49,1.8c-0.23,0.7-0.51,1.38-0.84,2.04C62.73,57.46,62.93,58.68,63.73,59.48z M23.24,11.41   c0,0.64-0.52,1.16-1.16,1.16H8.81c-0.64,0-1.16-0.52-1.16-1.16s0.52-1.16,1.16-1.16h13.28C22.72,10.25,23.24,10.77,23.24,11.41z    M23.24,19.55c0,0.64-0.52,1.16-1.16,1.16H8.68c-0.64,0-1.16-0.52-1.16-1.16c0-0.64,0.52-1.16,1.16-1.16h13.4   C22.72,18.39,23.24,18.91,23.24,19.55z M3.72,28.2h23.32c0.64,0,1.16-0.52,1.16-1.16V3.72c0-0.64-0.52-1.16-1.16-1.16H3.72   c-0.64,0-1.16,0.52-1.16,1.16v23.32C2.56,27.68,3.08,28.2,3.72,28.2z M4.88,4.88h21.01v21.01H4.88V4.88z M76.89,11.41   c0-0.64,0.52-1.16,1.16-1.16h13.28c0.64,0,1.16,0.52,1.16,1.16s-0.52,1.16-1.16,1.16H78.04C77.41,12.56,76.89,12.04,76.89,11.41z    M76.76,19.55c0-0.64,0.52-1.16,1.16-1.16h13.4c0.64,0,1.16,0.52,1.16,1.16c0,0.64-0.52,1.16-1.16,1.16h-13.4   C77.28,20.71,76.76,20.19,76.76,19.55z M96.28,2.56H72.96c-0.64,0-1.16,0.52-1.16,1.16v23.32c0,0.64,0.52,1.16,1.16,1.16h23.32   c0.64,0,1.16-0.52,1.16-1.16V3.72C97.44,3.08,96.92,2.56,96.28,2.56z M95.12,25.89H74.11V4.88h21.01V25.89z M7.65,80.64   c0-0.64,0.52-1.16,1.16-1.16h13.28c0.64,0,1.16,0.52,1.16,1.16s-0.52,1.16-1.16,1.16H8.81C8.17,81.8,7.65,81.28,7.65,80.64z    M7.52,88.79c0-0.64,0.52-1.16,1.16-1.16h13.4c0.64,0,1.16,0.52,1.16,1.16s-0.52,1.16-1.16,1.16H8.68   C8.04,89.94,7.52,89.43,7.52,88.79z M27.04,71.8H3.72c-0.64,0-1.16,0.52-1.16,1.16v23.32c0,0.64,0.52,1.16,1.16,1.16h23.32   c0.64,0,1.16-0.52,1.16-1.16V72.96C28.2,72.32,27.68,71.8,27.04,71.8z M25.89,95.12H4.88V74.11h21.01V95.12z M76.89,80.64   c0-0.64,0.52-1.16,1.16-1.16h13.28c0.64,0,1.16,0.52,1.16,1.16s-0.52,1.16-1.16,1.16H78.04C77.41,81.8,76.89,81.28,76.89,80.64z    M76.76,88.79c0-0.64,0.52-1.16,1.16-1.16h13.4c0.64,0,1.16,0.52,1.16,1.16s-0.52,1.16-1.16,1.16h-13.4   C77.28,89.94,76.76,89.43,76.76,88.79z M96.28,71.8H72.96c-0.64,0-1.16,0.52-1.16,1.16v23.32c0,0.64,0.52,1.16,1.16,1.16h23.32   c0.64,0,1.16-0.52,1.16-1.16V72.96C97.44,72.32,96.92,71.8,96.28,71.8z M95.12,95.12H74.11V74.11h21.01V95.12z M38.26,15.38   c0-0.64,0.52-1.16,1.16-1.16h18.67l-3.61-3.61c-0.45-0.45-0.45-1.18,0-1.64c0.45-0.45,1.18-0.45,1.64,0l5.58,5.58   c0.45,0.45,0.45,1.18,0,1.64l-5.58,5.58c-0.23,0.23-0.52,0.34-0.82,0.34s-0.59-0.11-0.82-0.34c-0.45-0.45-0.45-1.18,0-1.64   l3.61-3.61H39.42C38.78,16.54,38.26,16.02,38.26,15.38z M85.76,39.1v18.67l3.61-3.61c0.45-0.45,1.18-0.45,1.64,0   c0.45,0.45,0.45,1.18,0,1.64l-5.58,5.58c-0.23,0.23-0.52,0.34-0.82,0.34s-0.59-0.11-0.82-0.34L78.2,55.8   c-0.45-0.45-0.45-1.18,0-1.64c0.45-0.45,1.18-0.45,1.64,0l3.61,3.61V39.1c0-0.64,0.52-1.16,1.16-1.16S85.76,38.46,85.76,39.1z    M62.04,84.27c0,0.64-0.52,1.16-1.16,1.16l-18.67,0l3.61,3.61c0.45,0.45,0.45,1.18,0,1.64c-0.23,0.23-0.52,0.34-0.82,0.34   c-0.3,0-0.59-0.11-0.82-0.34l-5.58-5.58c-0.45-0.45-0.45-1.18,0-1.64l5.58-5.58c0.45-0.45,1.18-0.45,1.64,0   c0.45,0.45,0.45,1.18,0,1.64l-3.61,3.61l18.67,0C61.52,83.12,62.04,83.64,62.04,84.27z M20.47,45.5l-3.61-3.61l0,18.67   c0,0.64-0.52,1.16-1.16,1.16s-1.16-0.52-1.16-1.16l0-18.67l-3.61,3.61c-0.45,0.45-1.18,0.45-1.64,0c-0.45-0.45-0.45-1.18,0-1.64   l5.58-5.58c0.45-0.45,1.18-0.45,1.64,0l5.58,5.58c0.45,0.45,0.45,1.18,0,1.64c-0.23,0.23-0.52,0.34-0.82,0.34   S20.69,45.72,20.47,45.5z M55.98,45.82c0.45,0.45,0.45,1.18,0,1.64l-6.38,6.38c-0.23,0.23-0.52,0.34-0.82,0.34   c-0.3,0-0.59-0.11-0.82-0.34l-3.64-3.64c-0.45-0.45-0.45-1.18,0-1.64c0.45-0.45,1.18-0.45,1.64,0l2.82,2.82l5.56-5.56   C54.79,45.37,55.53,45.37,55.98,45.82z M50,38.25c-6.48,0-11.75,5.27-11.75,11.75c0,6.48,5.27,11.75,11.75,11.75   S61.75,56.48,61.75,50C61.75,43.52,56.48,38.25,50,38.25z M50,59.44c-5.21,0-9.44-4.23-9.44-9.44c0-5.21,4.23-9.44,9.44-9.44   s9.44,4.23,9.44,9.44C59.44,55.21,55.21,59.44,50,59.44z"/></g><text x="0" y="115" fill="#000000" font-size="5px" font-weight="bold" font-family="'Helvetica Neue', Helvetica, Arial-Unicode, Arial, Sans-serif">Created by muhammad rofian</text><text x="0" y="120" fill="#000000" font-size="5px" font-weight="bold" font-family="'Helvetica Neue', Helvetica, Arial-Unicode, Arial, Sans-serif">from the Noun Project</text></svg>