<svg xmlns="http://www.w3.org/2000/svg" viewBox="0 0 64 80" x="0px" y="0px"><path data-name="Machine learning" d="m58.072,31.021l-1.333-4.001h-2.791c-.233-1.327-.596-2.609-1.081-3.831l2.967-.229,1.551-6.981c3.684-.512,3.366-5.892-.367-5.963-2.991-.026-4.111,4.012-1.586,5.537l-1.228,5.527-2.223.172c-1.618-3.055-4.019-5.623-6.931-7.462l1.517-2.82c4.231.507,4.712-5.79.451-5.954-2.558-.058-3.972,3.185-2.214,5.009l-1.499,2.786c-1.79-.89-3.731-1.511-5.778-1.82l-.278-3.245c2.897-1.273,1.98-5.742-1.231-5.73-3.502.043-4.11,4.985-.762,5.89l.247,2.887c-2.969-.203-5.96.397-8.63,1.523l-1.2-4.8c2.446-1.569,1.296-5.528-1.655-5.5-3.78.077-4.034,5.545-.288,5.971l1.308,5.232c-1.692.953-3.317,2.141-4.663,3.61l-3.862-5.149c1.34-1.886-.153-4.735-2.495-4.664-4.579.259-3.547,6.994.886,5.852l4.133,5.511c-1.618,2.079-2.784,4.435-3.455,6.954l-6.618-3.782c.606-4.278-5.764-4.853-5.946-.536-.057,2.517,3.101,3.951,4.945,2.267l7.191,4.109c-.295,1.607-.262,3.702-.255,5.354l-4.102,8.437c-.655,1.249.336,2.879,1.746,2.874,0,0,3.158.084,3.158.084l.033,7.146c-.043,2.084,1.988,3.837,4.037,3.498,0,0,8.822-1.152,8.822-1.152l.747,7.467c.152,1.303,2.099,1.114,1.99-.199,0,0-.85-8.492-.85-8.492-.042-.546-.585-.975-1.125-.892,0,0-9.855,1.287-9.855,1.287-.897.153-1.787-.613-1.767-1.525,0,0-.038-8.116-.038-8.116-.002-.541-.434-.981-.974-.995l-4.127-.11,4.202-8.644c.066-.136.101-.286.101-.437.007-1.244-.048-3.308.118-4.52l2.822,1.613,10.517-1.915c1.895,5.99,10.309,6.552,12.976.866h8.862c.17,3.918-.073,8.156-4.007,14.441,0,0-1.699,2.548-1.699,2.548-.143.214-.197.475-.153.729l2.548,14.437c.094.547.627.908,1.159.811.544-.096.907-.615.811-1.159l-2.478-14.042,1.476-2.214c4.229-6.745,4.512-11.38,4.343-15.55h1.105l.881,2.642c-2.235,1.677-.987,5.386,1.84,5.354,3.922-.096,3.973-5.83.055-5.994Zm-8.302-9.599l-7.053.544c-.374-.524-.815-.996-1.315-1.4l2.699-5.016c2.318,1.488,4.259,3.501,5.67,5.871Zm-7.414-6.851l-2.676,4.974c-.462-.191-.95-.329-1.456-.418l-.522-6.089c1.642.294,3.202.818,4.655,1.533Zm-7.776-1.826c.369,0,.73.033,1.094.055l.537,6.265c-.871.1-1.694.361-2.438.753l-5.887-3.448-.52-2.078c2.242-1.003,4.684-1.547,7.214-1.547Zm-12.507,5.182c1.052-1.053,2.224-1.938,3.47-2.682l.504,2.016c.065.261.232.485.465.621l5.516,3.231c-.275.28-.526.584-.752.907l-7.715-.942-1.967-2.623c.161-.175.31-.359.479-.528Zm-1.876,10.043l-2.813-1.608c.534-2.278,1.516-4.416,2.903-6.317l2.186,2.915,7.865.961c-.219.709-.348,1.483-.312,2.259l-9.828,1.79Zm16.819,3.045c-4.923.006-6.832-6.47-2.786-9.149.021-.011.041-.021.062-.033,3.147-2.197,7.838.309,7.724,4.183,0,2.757-2.243,5-5,5Zm6.919-3.996c.166-1.03.065-2.152-.249-3.122l7.087-.547c.511,1.164.901,2.391,1.152,3.669h-7.99Z"/><text x="0" y="79" fill="#000000" font-size="5px" font-weight="bold" font-family="'Helvetica Neue', Helvetica, Arial-Unicode, Arial, Sans-serif">Created by Ittichai Anusarn</text><text x="0" y="84" fill="#000000" font-size="5px" font-weight="bold" font-family="'Helvetica Neue', Helvetica, Arial-Unicode, Arial, Sans-serif">from the Noun Project</text></svg>