<svg xmlns="http://www.w3.org/2000/svg" data-name="Layer 1" viewBox="0 0 100 125" x="0px" y="0px"><title>a</title><path d="M39.133,47.621,32.89,41.379a1.032,1.032,0,0,1,0-1.458l6.243-6.242a1.03,1.03,0,1,1,1.457,1.457L35.076,40.65l5.514,5.514a1.03,1.03,0,1,1-1.457,1.457Zm13.344.215a1.031,1.031,0,0,0,1.458,0l6.242-6.242a1.03,1.03,0,0,0,0-1.458l-6.242-6.242a1.031,1.031,0,0,0-1.458,1.457l5.514,5.514-5.514,5.514A1.031,1.031,0,0,0,52.477,47.836Zm-8.806,3.605a1.027,1.027,0,0,0,1.262-.728l5.192-19.377a1.031,1.031,0,0,0-1.991-.534L42.942,50.179A1.03,1.03,0,0,0,43.671,51.441ZM20.522,12.413h.039a1.031,1.031,0,0,0,0-2.061h-.039a1.031,1.031,0,1,0,0,2.061Zm5.243,0H25.8a1.031,1.031,0,1,0,0-2.061h-.039a1.031,1.031,0,0,0,0,2.061Zm5.244,0h.039a1.031,1.031,0,0,0,0-2.061h-.039a1.031,1.031,0,1,0,0,2.061Zm10.457,0h31.08a1.031,1.031,0,0,0,0-2.061H41.466a1.031,1.031,0,1,0,0,2.061ZM93.437,34.475l-5.293,5.366-.079,33.774a4.653,4.653,0,0,1-4.641,4.639h-29a9.994,9.994,0,0,0,9.927,8.957h5.984A1.364,1.364,0,0,1,71.7,88.573v4.68a1.364,1.364,0,0,1-1.362,1.362H23.07a1.364,1.364,0,0,1-1.362-1.362v-4.68a1.364,1.364,0,0,1,1.362-1.362h5.983a9.994,9.994,0,0,0,9.928-8.957H9.644A4.646,4.646,0,0,1,5,73.613v-51a4.646,4.646,0,0,1,4.641-4.641H12.28V6.415a1.03,1.03,0,0,1,1.03-1.03H79.757a1.031,1.031,0,0,1,1.031,1.03V17.973h2.636a4.646,4.646,0,0,1,4.641,4.641v2.5c.141-.033.282-.06.424-.079a3.6,3.6,0,0,1,3.062.924L94,28.378C95.525,29.88,95.271,32.615,93.437,34.475ZM80.788,20.035V31.347l.038-.039h0l2.221-2.251c.015-.03.031-.06.049-.089a1.033,1.033,0,0,1,.4-.367l1.965-1.992A5.952,5.952,0,0,1,86,26.129V22.614a2.583,2.583,0,0,0-2.58-2.579Zm8.391,15.821a21.295,21.295,0,0,0-5.027-4.984l-.975.988a23.017,23.017,0,0,1,2.708,2.294h0a23,23,0,0,1,2.331,2.677Zm-2.43,2.463a20.093,20.093,0,0,0-1.595-1.956L71.7,50a22.319,22.319,0,0,1,1.614,1.937ZM13.276,60.565l-.962,1.491L14.3,63.991l1.422-.968a1.028,1.028,0,0,1,1.069-.055,8.67,8.67,0,0,0,1.664.684,1.03,1.03,0,0,1,.718.772l.373,1.733,2.772-.035.32-1.69a1.033,1.033,0,0,1,.717-.8,8.607,8.607,0,0,0,1.659-.693,1.03,1.03,0,0,1,1.054.038l1.491.962,1.935-1.984-.969-1.422a1.033,1.033,0,0,1-.055-1.07,8.493,8.493,0,0,0,.684-1.664,1.033,1.033,0,0,1,.772-.717l1.733-.374-.034-2.771-1.69-.321a1.028,1.028,0,0,1-.795-.717,8.574,8.574,0,0,0-.694-1.659,1.031,1.031,0,0,1,.038-1.053l.962-1.491L27.46,46.766l-1.422.968a1.029,1.029,0,0,1-1.069.055,8.67,8.67,0,0,0-1.664-.684,1.032,1.032,0,0,1-.718-.772L22.214,44.6l-2.771.035-.321,1.69a1.031,1.031,0,0,1-.717.795,8.579,8.579,0,0,0-1.66.693,1.028,1.028,0,0,1-1.053-.038L14.2,46.813,12.266,48.8l.969,1.423a1.029,1.029,0,0,1,.055,1.069,8.607,8.607,0,0,0-.684,1.664,1.03,1.03,0,0,1-.772.717l-1.733.374.034,2.771,1.69.321a1.029,1.029,0,0,1,.8.717,8.574,8.574,0,0,0,.694,1.659A1.031,1.031,0,0,1,13.276,60.565Zm18.489,1.912H78.726V49.387L73.884,54.3l-.014.012a1.073,1.073,0,0,1-.127.1l-.042.028a1.1,1.1,0,0,1-.14.075l-.024.011a1,1,0,0,1-.152.049l-8.337,1.943a1.03,1.03,0,0,1-1.24-1.224l1.829-8.362a.86.86,0,0,1,.047-.154c0-.011.009-.02.014-.031a1.058,1.058,0,0,1,.069-.134l.028-.043a1.04,1.04,0,0,1,.1-.127l.012-.015L78.726,33.437V17.274H14.341V44.505a1.014,1.014,0,0,1,.27.12l1.7,1.1q.441-.209.9-.376l.365-1.924a1.03,1.03,0,0,1,1-.838l4.457-.055h.013a1.031,1.031,0,0,1,1.007.813l.426,1.978q.459.165.9.37L27,44.588a1.031,1.031,0,0,1,1.3.114l3.189,3.112a1.03,1.03,0,0,1,.147,1.3l-1.1,1.7q.208.441.376.9l1.924.365a1.031,1.031,0,0,1,.838,1l.056,4.456a1.03,1.03,0,0,1-.813,1.02l-1.979.427c-.109.306-.233.606-.369.9l1.1,1.618A1.031,1.031,0,0,1,31.765,62.477ZM66.17,54.141l5.292-1.233a21.662,21.662,0,0,0-4.131-4.075ZM83.687,34.916a19.965,19.965,0,0,0-1.977-1.568L68.272,46.969a22.359,22.359,0,0,1,1.959,1.588ZM14.341,7.446v7.767H78.726V7.446ZM69.636,89.272H23.769v3.282H69.636ZM52.357,78.254H41.048a12.046,12.046,0,0,1-5.265,8.957H57.622A12.046,12.046,0,0,1,52.357,78.254ZM86,73.611l0-1.787H7.064v1.789a2.582,2.582,0,0,0,2.58,2.58h73.78A2.589,2.589,0,0,0,86,73.611Zm.074-31.676L80.788,47.3v16.21a1.031,1.031,0,0,1-1.031,1.03h-49.9l-1.412,1.448a1.031,1.031,0,0,1-1.3.146l-1.7-1.1q-.44.209-.9.376l-.365,1.924a1.03,1.03,0,0,1-1,.838l-4.456.055h-.013a1.031,1.031,0,0,1-1.008-.813l-.426-1.978q-.459-.163-.9-.37l-1.619,1.1a1.03,1.03,0,0,1-1.3-.114l-3.19-3.112a1.031,1.031,0,0,1-.147-1.3l1.1-1.7q-.209-.441-.376-.9l-1.924-.365a1.032,1.032,0,0,1-.838-1l-.056-4.456a1.03,1.03,0,0,1,.814-1.02l1.978-.427q.164-.457.37-.9l-1.1-1.618a1.03,1.03,0,0,1,.114-1.3l2.077-2.129v-25.8H9.644a2.582,2.582,0,0,0-2.58,2.579V69.762H86.013Zm6.477-12.09L90.1,27.427a1.59,1.59,0,0,0-1.332-.351,3.314,3.314,0,0,0-1.841.98l-1.312,1.329a23.486,23.486,0,0,1,5.029,4.983l1.322-1.341C92.988,32,93.257,30.537,92.555,29.845Zm-77.09,25.6a5.415,5.415,0,0,1,5.347-5.481h.068a5.414,5.414,0,0,1,.066,10.828h-.068A5.421,5.421,0,0,1,15.465,55.446Zm2.061-.026a3.358,3.358,0,0,0,3.352,3.312h.043a3.354,3.354,0,0,0-.041-6.707h-.043a3.353,3.353,0,0,0-3.311,3.394Z"/><text x="0" y="115" fill="#000000" font-size="5px" font-weight="bold" font-family="'Helvetica Neue', Helvetica, Arial-Unicode, Arial, Sans-serif">Created by Good Father</text><text x="0" y="120" fill="#000000" font-size="5px" font-weight="bold" font-family="'Helvetica Neue', Helvetica, Arial-Unicode, Arial, Sans-serif">from the Noun Project</text></svg>