<svg xmlns="http://www.w3.org/2000/svg" xmlns:xlink="http://www.w3.org/1999/xlink" version="1.1" x="0px" y="0px" viewBox="0 0 64 80" enable-background="new 0 0 64 64" xml:space="preserve"><polygon points="28.052,28.297 27.375,27.562 22.553,31.999 27.375,36.438 28.052,35.702 24.03,31.999 "/><polygon points="35.949,28.297 39.971,32.001 35.949,35.702 36.627,36.438 41.447,32.001 36.627,27.562 "/><rect x="31.5" y="27.193" transform="matrix(-0.9861 -0.166 0.166 -0.9861 58.2442 68.8675)" width="1" height="9.614"/><path d="M59.609,27.608c-2.252,0-4.091,1.708-4.343,3.892h-9.845c-0.123-3.33-1.457-6.348-3.58-8.634l6.964-6.964  c0.772,0.615,1.713,0.967,2.716,0.967c1.173,0,2.276-0.457,3.105-1.286c0.83-0.83,1.287-1.932,1.287-3.105  c0-1.173-0.457-2.276-1.287-3.105c-0.829-0.829-1.933-1.286-3.105-1.286s-2.275,0.457-3.104,1.286  c-1.591,1.591-1.684,4.099-0.317,5.821l-6.966,6.965c-2.286-2.124-5.305-3.459-8.635-3.582V8.732  c2.184-0.252,3.891-2.091,3.891-4.34C36.391,1.97,34.421,0,32,0c-2.422,0-4.392,1.97-4.392,4.392c0,2.25,1.708,4.088,3.892,4.34  v9.845c-3.33,0.123-6.348,1.458-8.635,3.581l-6.964-6.964c1.366-1.723,1.273-4.23-0.318-5.821c-0.83-0.829-1.933-1.286-3.105-1.286  s-2.275,0.457-3.105,1.286c-1.711,1.712-1.711,4.498,0,6.21c0.829,0.83,1.932,1.286,3.105,1.286c1.003,0,1.944-0.352,2.717-0.967  l6.963,6.963c-2.124,2.287-3.458,5.305-3.581,8.635H8.732c-0.252-2.185-2.09-3.892-4.339-3.892C1.971,27.608,0,29.578,0,32  c0,2.421,1.971,4.391,4.393,4.391c2.249,0,4.087-1.707,4.339-3.891h9.845c0.123,3.33,1.458,6.349,3.582,8.635l-6.964,6.964  c-0.774-0.615-1.715-0.967-2.718-0.967c-1.172,0-2.275,0.456-3.104,1.285c-0.829,0.829-1.286,1.932-1.286,3.104  c0,1.173,0.456,2.276,1.285,3.105c0.829,0.83,1.932,1.286,3.105,1.286c1.173,0,2.276-0.456,3.107-1.286  c0.829-0.829,1.286-1.933,1.286-3.105c0-1.003-0.352-1.943-0.967-2.716l6.964-6.964c2.286,2.123,5.304,3.457,8.634,3.58v9.845  c-2.185,0.252-3.892,2.091-3.892,4.342C27.608,62.03,29.578,64,32,64c2.421,0,4.391-1.97,4.391-4.392  c0-2.251-1.707-4.09-3.891-4.342v-9.845c3.329-0.123,6.348-1.457,8.634-3.581l6.965,6.965c-0.615,0.772-0.967,1.713-0.967,2.716  c-0.001,1.173,0.456,2.276,1.285,3.105s1.932,1.286,3.105,1.286c1.173,0,2.275-0.457,3.104-1.286  c0.83-0.829,1.287-1.932,1.286-3.105c0-1.173-0.457-2.275-1.286-3.104s-1.932-1.286-3.104-1.286c-1.004,0-1.944,0.352-2.717,0.968  l-6.965-6.965c2.124-2.286,3.458-5.305,3.581-8.634h9.845c0.252,2.184,2.091,3.891,4.343,3.891C62.03,36.391,64,34.421,64,32  C64,29.578,62.03,27.608,59.609,27.608z M49.125,10.08c0.64-0.64,1.491-0.993,2.396-0.993c0.906,0,1.758,0.353,2.398,0.993  c0.641,0.641,0.994,1.493,0.994,2.398c0,0.905-0.354,1.757-0.994,2.398c-1.281,1.281-3.516,1.281-4.795,0  C47.803,13.553,47.803,11.402,49.125,10.08z M28.608,4.392C28.608,2.521,30.129,1,32,1c1.869,0,3.391,1.521,3.391,3.392  c0,1.87-1.521,3.391-3.391,3.391C30.129,7.783,28.608,6.262,28.608,4.392z M10.08,14.876c-1.322-1.323-1.322-3.474,0-4.796  c0.641-0.64,1.492-0.993,2.398-0.993s1.758,0.353,2.398,0.993c1.322,1.322,1.322,3.474,0,4.796  C13.595,16.157,11.361,16.157,10.08,14.876z M4.393,35.391C2.522,35.391,1,33.869,1,32c0-1.871,1.522-3.392,3.393-3.392  c1.869,0,3.39,1.521,3.39,3.392C7.783,33.869,6.262,35.391,4.393,35.391z M14.877,53.92c-1.281,1.281-3.516,1.282-4.798,0  c-0.64-0.641-0.993-1.492-0.992-2.398c0-0.906,0.353-1.757,0.993-2.397s1.491-0.992,2.396-0.992c0.906,0,1.758,0.353,2.399,0.993  c0.641,0.64,0.994,1.491,0.994,2.396C15.87,52.428,15.517,53.279,14.877,53.92z M35.391,59.608C35.391,61.479,33.869,63,32,63  c-1.871,0-3.392-1.521-3.392-3.392c0-1.871,1.521-3.393,3.392-3.393C33.869,56.216,35.391,57.737,35.391,59.608z M53.92,49.124  c0.641,0.641,0.993,1.492,0.993,2.397c0,0.906-0.353,1.758-0.993,2.398c-1.282,1.281-3.516,1.281-4.796,0  c-0.641-0.641-0.993-1.492-0.992-2.398c0-0.905,0.353-1.757,0.993-2.396c0.64-0.641,1.491-0.994,2.397-0.994  C52.428,48.131,53.279,48.483,53.92,49.124z M32,44.447c-6.864,0-12.448-5.584-12.448-12.447c0-6.864,5.584-12.448,12.448-12.448  c6.863,0,12.447,5.584,12.447,12.448C44.447,38.863,38.863,44.447,32,44.447z M59.609,35.391c-1.871,0-3.394-1.521-3.394-3.391  c0-1.871,1.522-3.392,3.394-3.392C61.479,28.608,63,30.129,63,32C63,33.869,61.479,35.391,59.609,35.391z"/><text x="0" y="79" fill="#000000" font-size="5px" font-weight="bold" font-family="'Helvetica Neue', Helvetica, Arial-Unicode, Arial, Sans-serif">Created by Med MB</text><text x="0" y="84" fill="#000000" font-size="5px" font-weight="bold" font-family="'Helvetica Neue', Helvetica, Arial-Unicode, Arial, Sans-serif">from the Noun Project</text></svg>