<svg xmlns="http://www.w3.org/2000/svg" xmlns:xlink="http://www.w3.org/1999/xlink" version="1.1" x="0px" y="0px" viewBox="0 0 30 37.5" style="enable-background:new 0 0 30 30;" xml:space="preserve"><g><path d="M26.090332,4.4790039H3.9199219C3.137207,4.4790039,2.5,5.1118164,2.5,5.8891602c0,9.1267967,0,9.6828585,0,14.8896484   c0,0.7832031,0.637207,1.4199219,1.4199219,1.4199219h8.1730957c-0.361084,0.8312988-1.1652832,1.7248535-1.9472046,2.3222656   H9.1928711c-0.2763672,0-0.5,0.2236328-0.5,0.5s0.2236328,0.5,0.5,0.5h11.6225586c0.2763672,0,0.5-0.2236328,0.5-0.5   s-0.2236328-0.5-0.5-0.5h-0.9596558c-0.7623901-0.5915527-1.5760498-1.4771729-1.9401245-2.3222656h8.1746826   c0.7773438,0,1.409668-0.6367188,1.409668-1.4199219c0-5.1016741,0-5.7972393,0-14.8896484   C27.5,5.1118164,26.8676758,4.4790039,26.090332,4.4790039z M3.5,5.8891602c0-0.2265625,0.1884766-0.4101563,0.4199219-0.4101563   H26.090332c0.2294922,0,0.409668,0.1796875,0.409668,0.4101563v11.5996094h-1.9394531v-5.5048828   c0-0.8271484-0.6728516-1.5-1.5-1.5h-0.5195313c-0.8271484,0-1.5,0.6728516-1.5,1.5v5.5048828h-1.6806641V14.456543   c0-0.8271484-0.6728516-1.5-1.5-1.5H17.340332c-0.8271484,0-1.5,0.6728516-1.5,1.5v3.0322266H14.159668v-5.5048828   c0-0.8271484-0.6728516-1.5-1.5-1.5h-0.5195313c-0.8271484,0-1.5,0.6728516-1.5,1.5v5.5048828H8.9594727V14.456543   c0-0.8271484-0.6728516-1.5-1.5-1.5H6.9399414c-0.8271484,0-1.5,0.6728516-1.5,1.5v3.0322266H3.5V5.8891602z M22.0410156,17.487793   v-5.5039063c0-0.2753906,0.2241211-0.5,0.5-0.5h0.5195313c0.2758789,0,0.5,0.2246094,0.5,0.5v5.5039063H22.0410156z    M16.840332,17.487793v-3.03125c0-0.2753906,0.2241211-0.5,0.5-0.5h0.5200195c0.2758789,0,0.5,0.2246094,0.5,0.5v3.03125H16.840332   z M11.6401367,17.487793v-5.5039063c0-0.2753906,0.2241211-0.5,0.5-0.5h0.5195313c0.2758789,0,0.5,0.2246094,0.5,0.5v5.5039063   H11.6401367z M6.4399414,17.487793v-3.03125c0-0.2753906,0.2241211-0.5,0.5-0.5h0.5195313c0.2758789,0,0.5,0.2246094,0.5,0.5   v3.03125H6.4399414z M18.3535156,24.519043h-6.6953125c0.6733398-0.6855469,1.2587824-1.5107422,1.5073242-2.3203125h3.6796875   C17.09375,23.0024414,17.6801758,23.8286133,18.3535156,24.519043z M26.5,20.7788086   c0,0.2353516-0.1801758,0.4199219-0.409668,0.4199219c-7.8808575,0-14.4151077,0-22.1704102,0   C3.6845703,21.1987305,3.5,21.0141602,3.5,20.7788086v-2.2900391h23V20.7788086z"/><path d="M4.9692383,20.1958008c0.1776271,0.1988659,0.5186467,0.2021561,0.7001953,0   c0.2490811-0.2002411,0.177753-0.6996803-0.1601563-0.8095703c-0.2010651-0.1013508-0.4344902-0.0059395-0.5400391,0.0996094   C4.7573009,19.6760674,4.7818022,20.0451164,4.9692383,20.1958008z"/><path d="M6.8994141,20.1958008c0.207396,0.2084084,0.5155845,0.1924896,0.7099609,0   c0.1733007-0.1393204,0.2064757-0.5034847,0-0.7099609c-0.2405152-0.1914787-0.4760256-0.1880665-0.7099609,0   C6.7265854,19.6577339,6.697515,19.9939022,6.8994141,20.1958008z"/><path d="M8.8393555,20.1958008c0.2059212,0.2069244,0.5154514,0.1954575,0.7099609,0   c0.2047071-0.2047062,0.1703072-0.5396538,0-0.7099609c-0.2516994-0.2023468-0.5393801-0.1699867-0.7099609,0   C8.5980911,19.7559509,8.6961241,20.0806541,8.8393555,20.1958008z"/><path d="M7.2045898,12.5600586c0.8657227,0,1.5698242-0.7041016,1.5698242-1.5703125   c0-0.012146-0.0032959-0.0233154-0.00354-0.0354004l2.7526855-2.1033936   c0.2518921,0.1689453,0.5551147,0.2677002,0.8812256,0.2677002c0.3875122,0,0.7381592-0.1464233,1.0123901-0.3799438   l2.7302246,1.6444092c-0.078125,0.1868896-0.1220093,0.3916626-0.1220093,0.6066284   c0,0.8662109,0.7089844,1.5703125,1.5800781,1.5703125c0.8657227,0,1.5698242-0.7041016,1.5698242-1.5703125   c0-0.2463989-0.0612183-0.4768066-0.1616211-0.6847534l2.578064-1.7636719   c0.2901001,0.3495483,0.7235718,0.5773315,1.2139282,0.5773315c0.8657227,0,1.5698242-0.7041016,1.5698242-1.5703125   c0-0.8710938-0.7041016-1.5800781-1.5698242-1.5800781c-0.8710938,0-1.5800781,0.7089844-1.5800781,1.5800781   c0,0.0099487,0.0028076,0.019165,0.0029907,0.0291138l-2.9284058,2.003418   c-0.2103271-0.1054077-0.4440918-0.1702271-0.6947021-0.1702271c-0.2845459,0-0.5480347,0.0814819-0.7789307,0.213562   l-2.8894653-1.7403564c0.0237427-0.1083374,0.0380249-0.2200928,0.0380249-0.3355103   c0-0.8710938-0.7045898-1.5800781-1.5703125-1.5800781c-0.8710938,0-1.5795898,0.7089844-1.5795898,1.5800781   c0,0.1784058,0.036499,0.3470459,0.0918579,0.506958L8.4002686,9.9784546   c-0.288147-0.3441772-0.7142334-0.5678101-1.1956787-0.5678101c-0.8710938,0-1.5800781,0.7080078-1.5800781,1.5791016   C5.6245117,11.855957,6.3334961,12.5600586,7.2045898,12.5600586z M22.8056641,6.9682617   c0.3139648,0,0.5698242,0.2597656,0.5698242,0.5800781c0,0.3144531-0.2558594,0.5703125-0.5698242,0.5703125   c-0.3198242,0-0.5800781-0.2558594-0.5800781-0.5703125C22.2255859,7.2231445,22.4804688,6.9682617,22.8056641,6.9682617z    M18.175293,10.9897461c0,0.3144531-0.2558594,0.5703125-0.5698242,0.5703125   c-0.3198242,0-0.5800781-0.2558594-0.5800781-0.5703125c0-0.3251953,0.2548828-0.5791016,0.5800781-0.5791016   C17.9194336,10.4106445,18.175293,10.6704102,18.175293,10.9897461z M12.4047852,6.9682617   c0.3144531,0,0.5703125,0.2597656,0.5703125,0.5800781c0,0.3144531-0.2558594,0.5703125-0.5703125,0.5703125   c-0.3198242,0-0.5795898-0.2558594-0.5795898-0.5703125C11.8251953,7.2231445,12.0795898,6.9682617,12.4047852,6.9682617z    M7.2045898,10.4106445c0.3139648,0,0.5698242,0.2597656,0.5698242,0.5791016c0,0.3144531-0.2558594,0.5703125-0.5698242,0.5703125   c-0.3198242,0-0.5800781-0.2558594-0.5800781-0.5703125C6.6245117,10.6645508,6.8793945,10.4106445,7.2045898,10.4106445z"/></g><text x="0" y="45" fill="#000000" font-size="5px" font-weight="bold" font-family="'Helvetica Neue', Helvetica, Arial-Unicode, Arial, Sans-serif">Created by Vectors Point</text><text x="0" y="50" fill="#000000" font-size="5px" font-weight="bold" font-family="'Helvetica Neue', Helvetica, Arial-Unicode, Arial, Sans-serif">from the Noun Project</text></svg>